<mxfile host="app.diagrams.net" agent="Mozilla/5.0 (Windows NT 10.0; Win64; x64; rv:135.0) Gecko/20100101 Firefox/135.0" version="26.0.14">
  <diagram name="Page-1" id="yD-vVlYoOyM2DvE1x76x">
    <mxGraphModel grid="0" page="0" gridSize="10" guides="0" tooltips="1" connect="1" arrows="1" fold="1" pageScale="1" pageWidth="850" pageHeight="1100" math="0" shadow="0">
      <root>
        <mxCell id="0" />
        <mxCell id="1" parent="0" />
        <mxCell id="_mH9GBxnLAf2wRKv1erQ-3" value="" style="edgeStyle=orthogonalEdgeStyle;rounded=0;orthogonalLoop=1;jettySize=auto;html=1;" edge="1" parent="1">
          <mxGeometry relative="1" as="geometry">
            <mxPoint x="177" y="185" as="targetPoint" />
          </mxGeometry>
        </mxCell>
        <mxCell id="_mH9GBxnLAf2wRKv1erQ-4" value="&amp;nbsp;&amp;nbsp;&amp;nbsp;&amp;nbsp;&amp;nbsp; Proses Pemesanan" style="swimlane;whiteSpace=wrap;html=1;align=left;" vertex="1" parent="1">
          <mxGeometry x="132" y="113" width="729" height="485" as="geometry" />
        </mxCell>
        <mxCell id="_mH9GBxnLAf2wRKv1erQ-7" value="" style="edgeStyle=orthogonalEdgeStyle;rounded=0;orthogonalLoop=1;jettySize=auto;html=1;" edge="1" parent="_mH9GBxnLAf2wRKv1erQ-4" source="_mH9GBxnLAf2wRKv1erQ-5" target="_mH9GBxnLAf2wRKv1erQ-6">
          <mxGeometry relative="1" as="geometry" />
        </mxCell>
        <mxCell id="_mH9GBxnLAf2wRKv1erQ-5" value="Admin" style="shape=umlActor;verticalLabelPosition=bottom;verticalAlign=top;html=1;outlineConnect=0;" vertex="1" parent="_mH9GBxnLAf2wRKv1erQ-4">
          <mxGeometry x="42" y="62" width="30" height="60" as="geometry" />
        </mxCell>
        <mxCell id="_mH9GBxnLAf2wRKv1erQ-9" value="" style="edgeStyle=orthogonalEdgeStyle;rounded=0;orthogonalLoop=1;jettySize=auto;html=1;" edge="1" parent="_mH9GBxnLAf2wRKv1erQ-4" source="_mH9GBxnLAf2wRKv1erQ-6" target="_mH9GBxnLAf2wRKv1erQ-8">
          <mxGeometry relative="1" as="geometry" />
        </mxCell>
        <mxCell id="_mH9GBxnLAf2wRKv1erQ-6" value="Halaman Login" style="whiteSpace=wrap;html=1;verticalAlign=top;" vertex="1" parent="_mH9GBxnLAf2wRKv1erQ-4">
          <mxGeometry x="136" y="76" width="95" height="33" as="geometry" />
        </mxCell>
        <mxCell id="_mH9GBxnLAf2wRKv1erQ-11" value="" style="edgeStyle=orthogonalEdgeStyle;rounded=0;orthogonalLoop=1;jettySize=auto;html=1;" edge="1" parent="_mH9GBxnLAf2wRKv1erQ-4" source="_mH9GBxnLAf2wRKv1erQ-8" target="_mH9GBxnLAf2wRKv1erQ-10">
          <mxGeometry relative="1" as="geometry" />
        </mxCell>
        <mxCell id="_mH9GBxnLAf2wRKv1erQ-8" value="Dashboard" style="whiteSpace=wrap;html=1;verticalAlign=top;" vertex="1" parent="_mH9GBxnLAf2wRKv1erQ-4">
          <mxGeometry x="290" y="76" width="95" height="33" as="geometry" />
        </mxCell>
        <mxCell id="_mH9GBxnLAf2wRKv1erQ-13" value="" style="edgeStyle=orthogonalEdgeStyle;rounded=0;orthogonalLoop=1;jettySize=auto;html=1;" edge="1" parent="_mH9GBxnLAf2wRKv1erQ-4" source="_mH9GBxnLAf2wRKv1erQ-10" target="_mH9GBxnLAf2wRKv1erQ-12">
          <mxGeometry relative="1" as="geometry" />
        </mxCell>
        <mxCell id="_mH9GBxnLAf2wRKv1erQ-10" value="Menu Transaksi" style="whiteSpace=wrap;html=1;verticalAlign=top;" vertex="1" parent="_mH9GBxnLAf2wRKv1erQ-4">
          <mxGeometry x="451" y="76" width="95" height="33" as="geometry" />
        </mxCell>
        <mxCell id="_mH9GBxnLAf2wRKv1erQ-15" value="" style="edgeStyle=orthogonalEdgeStyle;rounded=0;orthogonalLoop=1;jettySize=auto;html=1;" edge="1" parent="_mH9GBxnLAf2wRKv1erQ-4" source="_mH9GBxnLAf2wRKv1erQ-12" target="_mH9GBxnLAf2wRKv1erQ-14">
          <mxGeometry relative="1" as="geometry" />
        </mxCell>
        <mxCell id="_mH9GBxnLAf2wRKv1erQ-12" value="Halaman Pemesanan" style="whiteSpace=wrap;html=1;verticalAlign=middle;" vertex="1" parent="_mH9GBxnLAf2wRKv1erQ-4">
          <mxGeometry x="613" y="76" width="95" height="33" as="geometry" />
        </mxCell>
        <mxCell id="_mH9GBxnLAf2wRKv1erQ-19" value="" style="edgeStyle=orthogonalEdgeStyle;rounded=0;orthogonalLoop=1;jettySize=auto;html=1;" edge="1" parent="_mH9GBxnLAf2wRKv1erQ-4" source="_mH9GBxnLAf2wRKv1erQ-14" target="_mH9GBxnLAf2wRKv1erQ-18">
          <mxGeometry relative="1" as="geometry" />
        </mxCell>
        <mxCell id="_mH9GBxnLAf2wRKv1erQ-14" value="Input Data Pemesanan" style="whiteSpace=wrap;html=1;verticalAlign=middle;" vertex="1" parent="_mH9GBxnLAf2wRKv1erQ-4">
          <mxGeometry x="613" y="196" width="95" height="33" as="geometry" />
        </mxCell>
        <mxCell id="_mH9GBxnLAf2wRKv1erQ-21" value="" style="edgeStyle=orthogonalEdgeStyle;rounded=0;orthogonalLoop=1;jettySize=auto;html=1;" edge="1" parent="_mH9GBxnLAf2wRKv1erQ-4" source="_mH9GBxnLAf2wRKv1erQ-18" target="_mH9GBxnLAf2wRKv1erQ-20">
          <mxGeometry relative="1" as="geometry" />
        </mxCell>
        <mxCell id="_mH9GBxnLAf2wRKv1erQ-18" value="Check Data Pelanggan" style="whiteSpace=wrap;html=1;verticalAlign=middle;" vertex="1" parent="_mH9GBxnLAf2wRKv1erQ-4">
          <mxGeometry x="454" y="196" width="95" height="33" as="geometry" />
        </mxCell>
        <mxCell id="_mH9GBxnLAf2wRKv1erQ-23" value="" style="edgeStyle=orthogonalEdgeStyle;rounded=0;orthogonalLoop=1;jettySize=auto;html=1;" edge="1" parent="_mH9GBxnLAf2wRKv1erQ-4" source="_mH9GBxnLAf2wRKv1erQ-20" target="_mH9GBxnLAf2wRKv1erQ-22">
          <mxGeometry relative="1" as="geometry" />
        </mxCell>
        <mxCell id="_mH9GBxnLAf2wRKv1erQ-24" value="Ya" style="edgeLabel;html=1;align=center;verticalAlign=middle;resizable=0;points=[];" connectable="0" vertex="1" parent="_mH9GBxnLAf2wRKv1erQ-23">
          <mxGeometry x="-0.2041" y="1" relative="1" as="geometry">
            <mxPoint y="1" as="offset" />
          </mxGeometry>
        </mxCell>
        <mxCell id="_mH9GBxnLAf2wRKv1erQ-26" value="" style="edgeStyle=orthogonalEdgeStyle;rounded=0;orthogonalLoop=1;jettySize=auto;html=1;" edge="1" parent="_mH9GBxnLAf2wRKv1erQ-4" source="_mH9GBxnLAf2wRKv1erQ-20" target="_mH9GBxnLAf2wRKv1erQ-25">
          <mxGeometry relative="1" as="geometry" />
        </mxCell>
        <mxCell id="_mH9GBxnLAf2wRKv1erQ-29" value="Tidak" style="edgeLabel;html=1;align=center;verticalAlign=middle;resizable=0;points=[];" connectable="0" vertex="1" parent="_mH9GBxnLAf2wRKv1erQ-26">
          <mxGeometry x="-0.0873" y="2" relative="1" as="geometry">
            <mxPoint y="-1" as="offset" />
          </mxGeometry>
        </mxCell>
        <mxCell id="_mH9GBxnLAf2wRKv1erQ-20" value="Pelanggan Baru" style="rhombus;whiteSpace=wrap;html=1;" vertex="1" parent="_mH9GBxnLAf2wRKv1erQ-4">
          <mxGeometry x="286.5" y="172.5" width="80" height="80" as="geometry" />
        </mxCell>
        <mxCell id="_mH9GBxnLAf2wRKv1erQ-30" style="edgeStyle=orthogonalEdgeStyle;rounded=0;orthogonalLoop=1;jettySize=auto;html=1;entryX=1;entryY=0.5;entryDx=0;entryDy=0;" edge="1" parent="_mH9GBxnLAf2wRKv1erQ-4" source="_mH9GBxnLAf2wRKv1erQ-22" target="_mH9GBxnLAf2wRKv1erQ-27">
          <mxGeometry relative="1" as="geometry" />
        </mxCell>
        <mxCell id="_mH9GBxnLAf2wRKv1erQ-22" value="Input Data Pelanggan" style="whiteSpace=wrap;html=1;" vertex="1" parent="_mH9GBxnLAf2wRKv1erQ-4">
          <mxGeometry x="267" y="304" width="120" height="38" as="geometry" />
        </mxCell>
        <mxCell id="_mH9GBxnLAf2wRKv1erQ-28" value="" style="edgeStyle=orthogonalEdgeStyle;rounded=0;orthogonalLoop=1;jettySize=auto;html=1;" edge="1" parent="_mH9GBxnLAf2wRKv1erQ-4" source="_mH9GBxnLAf2wRKv1erQ-25" target="_mH9GBxnLAf2wRKv1erQ-27">
          <mxGeometry relative="1" as="geometry" />
        </mxCell>
        <mxCell id="_mH9GBxnLAf2wRKv1erQ-25" value="Tampilkan Data Pelanggan" style="whiteSpace=wrap;html=1;" vertex="1" parent="_mH9GBxnLAf2wRKv1erQ-4">
          <mxGeometry x="67" y="194" width="120" height="36.5" as="geometry" />
        </mxCell>
        <mxCell id="_mH9GBxnLAf2wRKv1erQ-32" value="" style="edgeStyle=orthogonalEdgeStyle;rounded=0;orthogonalLoop=1;jettySize=auto;html=1;" edge="1" parent="_mH9GBxnLAf2wRKv1erQ-4" source="_mH9GBxnLAf2wRKv1erQ-27" target="_mH9GBxnLAf2wRKv1erQ-31">
          <mxGeometry relative="1" as="geometry" />
        </mxCell>
        <mxCell id="_mH9GBxnLAf2wRKv1erQ-33" value="" style="edgeStyle=orthogonalEdgeStyle;rounded=0;orthogonalLoop=1;jettySize=auto;html=1;" edge="1" parent="_mH9GBxnLAf2wRKv1erQ-4" source="_mH9GBxnLAf2wRKv1erQ-27" target="_mH9GBxnLAf2wRKv1erQ-31">
          <mxGeometry relative="1" as="geometry" />
        </mxCell>
        <mxCell id="_mH9GBxnLAf2wRKv1erQ-27" value="Proses Pemesanan" style="whiteSpace=wrap;html=1;" vertex="1" parent="_mH9GBxnLAf2wRKv1erQ-4">
          <mxGeometry x="67" y="304" width="120" height="36.5" as="geometry" />
        </mxCell>
        <mxCell id="_mH9GBxnLAf2wRKv1erQ-31" value="Kirim Pemberitahuan ke Pelanggan" style="whiteSpace=wrap;html=1;" vertex="1" parent="_mH9GBxnLAf2wRKv1erQ-4">
          <mxGeometry x="10" y="419" width="120" height="36.5" as="geometry" />
        </mxCell>
        <mxCell id="_mH9GBxnLAf2wRKv1erQ-34" value="Kirim Pemberitahuan ke Teknisi" style="whiteSpace=wrap;html=1;" vertex="1" parent="_mH9GBxnLAf2wRKv1erQ-4">
          <mxGeometry x="154" y="419" width="120" height="36.5" as="geometry" />
        </mxCell>
        <mxCell id="_mH9GBxnLAf2wRKv1erQ-35" style="edgeStyle=orthogonalEdgeStyle;rounded=0;orthogonalLoop=1;jettySize=auto;html=1;entryX=0.558;entryY=0.066;entryDx=0;entryDy=0;entryPerimeter=0;" edge="1" parent="_mH9GBxnLAf2wRKv1erQ-4" source="_mH9GBxnLAf2wRKv1erQ-27" target="_mH9GBxnLAf2wRKv1erQ-34">
          <mxGeometry relative="1" as="geometry" />
        </mxCell>
      </root>
    </mxGraphModel>
  </diagram>
</mxfile>
